<svg id="Lager_1" data-name="Lager 1" xmlns="http://www.w3.org/2000/svg" viewBox="0 0 139.89 145.38"><defs><style>.cls-1{fill:gray;}</style></defs><g id="tNKdmp.tif"><path class="cls-1" d="M62.71,43.7H83.76c.68-3.67,1.36-7.3,2-10.93.46-2.47,1-4.93,1.38-7.41a2.25,2.25,0,0,1,2.43-2.11c2.8,0,5.61-.07,8.41,0a2.55,2.55,0,0,1,2.66,3.32c-.94,5.22-1.91,10.44-2.86,15.67-.08.45-.1.92-.16,1.53h3.91c3.8,0,7.6,0,11.4,0,2.51,0,3.47,1.14,3.07,3.59s-.81,4.87-1.24,7.3c-.37,2.14-1.06,2.72-3.27,2.73H95.2c-1.64,9.17-3.26,18.21-4.92,27.46h15.16c2.73,0,3.79,1.32,3.24,4-.49,2.41-1,4.84-1.46,7.25-.41,2-.89,2.36-2.91,2.37-5.13,0-10.26,0-15.4,0H87.75c-.47,2.59-.94,5.14-1.38,7.69-.61,3.46-1.18,6.92-1.78,10.38-.32,1.79-1,2.43-2.92,2.46-2.52,0-5,0-7.56,0s-3.49-1.24-3.09-3.62c.89-5.24,1.81-10.47,2.72-15.7.05-.33.05-.66.09-1.12-.44,0-.85-.09-1.25-.09-6.13,0-12.26,0-18.39,0-1.1,0-1.43.35-1.61,1.39-1,5.56-2,11.11-3.07,16.67-.36,2-.93,2.48-3,2.5-2.52,0-5,0-7.55,0s-3.49-1.27-3-3.79c1-5.5,2-11,3.06-16.68-.56,0-1.06-.06-1.55-.06H23.8c-2.75,0-3.71-1.19-3.22-3.86.4-2.15.74-4.31,1.14-6.45.54-2.89,1.06-3.31,4-3.31,4.8,0,9.61,0,14.41,0,1,0,1.37-.23,1.55-1.28,1.45-8.27,3-16.53,4.46-24.8.07-.41.06-.83.11-1.4H42.89c-4,0-8,0-12,0-2.4,0-3.48-1.31-3.05-3.67.47-2.52,1-5,1.48-7.54.37-1.84,1-2.4,2.91-2.41,5,0,10,0,15,0h1.65c.71-4.08,1.41-8.05,2.1-12,.37-2.06.69-4.12,1.11-6.17.36-1.72,1.12-2.33,2.88-2.35q3.84-.06,7.7,0c2.29,0,3.27,1.24,2.9,3.48C64.63,32.33,63.68,37.94,62.71,43.7Zm-2.6,13.75c-1.65,9.16-3.27,18.2-4.9,27.27a3.75,3.75,0,0,0,.66.12c6.55,0,13.11,0,19.66,0,.81,0,1-.33,1.15-1.06,1.11-6.31,2.27-12.61,3.39-18.92.44-2.44.86-4.9,1.3-7.43Z"/></g></svg>