<svg id="Lager_1" data-name="Lager 1" xmlns="http://www.w3.org/2000/svg" viewBox="0 0 139.89 145.38"><defs><style>.cls-1{fill:gray;}</style></defs><path class="cls-1" d="M37,98.12c-3.31,0-6.44,0-9.58,0a10.27,10.27,0,0,1-2.71-.33A5.47,5.47,0,0,1,21,92.2a5.28,5.28,0,0,1,4.57-5.29,30.25,30.25,0,0,1,3.93-.18c3.13,0,6.27,0,9.55,0,1.25-7.64,2.49-15.22,3.76-23H41.14c-3.33-.05-6.68,0-10-.22-2.67-.22-4.48-2.68-4.48-5.48a5.35,5.35,0,0,1,4.49-5.49,24.83,24.83,0,0,1,3.56-.19c3.3,0,6.59,0,10,0,.42-2.6.82-5.14,1.24-7.67.28-1.68.46-3.39.88-5a5.88,5.88,0,0,1,6.68-4.38,6,6,0,0,1,4.48,7c-.58,3.31-1.13,6.63-1.71,10H73.37c.57-3.57,1.13-7.1,1.71-10.62a18.22,18.22,0,0,1,.51-2.44,5.94,5.94,0,0,1,6.41-4,5.27,5.27,0,0,1,4.49,5.82c-.28,3.2-.86,6.37-1.31,9.55-.07.54-.13,1.08-.21,1.76,2.87,0,5.64,0,8.41,0a20.79,20.79,0,0,1,2.74.12A5.19,5.19,0,0,1,101,58c-2,.75-4,1.33-5.91,2.25a51.67,51.67,0,0,0-4.36,2.85,3.85,3.85,0,0,1-1.78.67c-1.94.09-3.88,0-6,0-.41,2.48-.82,4.9-1.22,7.31C81,75.82,80,80.53,79.51,85.3c-.21,2.16-1.36,4-1.34,6.19s0,4.28,0,6.51c-1.11,0-1.08.83-1.2,1.55-.56,3.57-1.1,7.14-1.7,10.7a5.78,5.78,0,0,1-9,4,5.9,5.9,0,0,1-2.3-6c.48-3.33,1.1-6.64,1.68-10H48.58c-.57,3.61-1.16,7.17-1.69,10.73-.35,2.36-1,4.47-3.3,5.72a5.44,5.44,0,0,1-8.13-4.8c.13-2.84.71-5.66,1.09-8.49C36.69,100.33,36.85,99.31,37,98.12ZM67.65,86.66c1.24-7.62,2.48-15.19,3.73-22.8H54.29c-1.24,7.64-2.48,15.2-3.72,22.8Z"/><path class="cls-1" d="M118.22,86.65a18.12,18.12,0,0,1,1.91.42,5.23,5.23,0,0,1,3.78,5.34c.07,7.63.09,15.26,0,22.88a5.35,5.35,0,0,1-5.72,5.7q-14.25.11-28.5,0c-3.55,0-5.72-2.23-5.75-5.79q-.1-11.33,0-22.65c0-3.27,1.74-5.14,4.93-5.72.23,0,.45-.1.77-.18,0-2.63,0-5.25,0-7.86a16,16,0,0,1,2.11-8.2,13.41,13.41,0,0,1,9.79-6.48,14.06,14.06,0,0,1,11.88,3.28A12.69,12.69,0,0,1,118,76.16c.24,3,.19,6,.26,9C118.23,85.67,118.22,86.15,118.22,86.65Zm-8.62,0a3.44,3.44,0,0,0,.07-.46c0-2.7,0-5.4,0-8.1a5.74,5.74,0,1,0-11.48,0c0,2.58,0,5.16,0,7.74a7.94,7.94,0,0,0,.1.8Z"/></svg>